<svg width="78" height="18" viewBox="0 0 78 18" fill="none" xmlns="http://www.w3.org/2000/svg">
  <g fill="#000000">
    <rect x="0" y="11" width="3" height="7" rx="1"/>
    <rect x="5" y="9" width="3" height="9" rx="1"/>
    <rect x="10" y="7" width="3" height="11" rx="1"/>
    <rect x="15" y="5" width="3" height="13" rx="1"/>
  </g>
  <path d="M31.8 15.5C29.4 15.5 27.4 13.6 27.4 11.2C27.4 8.8 29.4 6.8 31.8 6.8C34.2 6.8 36.1 8.8 36.1 11.2C36.1 13.6 34.2 15.5 31.8 15.5Z" fill="#000000"/>
  <path d="M24.2 8.4C26.1 6.5 28.8 5.3 31.8 5.3C34.8 5.3 37.5 6.5 39.4 8.4" stroke="#000000" stroke-width="1.6" stroke-linecap="round"/>
  <path d="M21.3 5.4C24 2.8 27.7 1.2 31.8 1.2C35.9 1.2 39.6 2.8 42.3 5.4" stroke="#000000" stroke-width="1.6" stroke-linecap="round"/>
  <rect x="50.5" y="3.5" width="24" height="11" rx="3" stroke="#000000" stroke-width="1.4"/>
  <rect x="75.2" y="7" width="2.3" height="4" rx="1" fill="#000000"/>
  <rect x="52.8" y="5.8" width="18.7" height="6.4" rx="1.8" fill="#000000"/>
</svg>
